<?xml version="1.0" encoding="UTF-8"?>
<svg id="Layer_2" data-name="Layer 2" xmlns="http://www.w3.org/2000/svg" viewBox="0 0 777.28 939.52">
  <defs>
    <style>
      .cls-1 {
        fill: #f8f5e7;
        stroke-width: 0px;
      }
    </style>
  </defs>
  <g id="Layer_1-2" data-name="Layer 1">
    <path class="cls-1" d="M775.95,564.8c-1.74-18.9-4.57-37.58-9.35-55.88-1.48-5.67-3.2-11.29-5.02-16.88l-.03.24-87.68-22.81,80.75,2.51c-.08-.21-.15-.43-.23-.64-3.9-10.72-9.92-20.51-13.74-31.39-2.37-6.76-8.21-12.27-12.37-18.43-4.67-6.92-10.1-13.25-14.8-20.18-4.84-7.15-7.19-15.61-12.85-22.21-7.52-8.78-15.33-17.41-23.1-25.85-11.96-12.97-20.65-28.56-35.16-39.68-12.63-9.68-21.08-24.06-32.85-35.35-16.68-16-35.12-30.47-48.5-50.06-7.11-10.41-14.13-20.61-18.86-32.29-8.93-22.05-7.4-44.93-4.62-67.72,3.41-27.86,17.65-41.21,9.32-55.65-2.35-4.07-5.14-6.15-10.81-10.26-11.68-8.47-27.59-19.73-47.31-32.96l-32.58-19c-2.34-1.8-20.04-15.03-36.84-8.53-6.44,2.49-10.45,7-13.97,10.96-10.05,11.3-13.67,23.91-15.12,31.7-2.06,6.74-5.07,16.8-8.53,29.09-6.3,22.37-6.59,25.52-9.18,34.22-3.86,12.94-10.4,42.63-33.66,65.43-9.47,9.28-18.86,18.42-29.66,26.01-21.07,14.82-44.11,26.28-66.68,38.54-24.5,13.31-48.33,27.69-71.62,43.06-23.94,15.8-46.42,33.36-66.42,53.85-9.29,9.52-17.13,20.35-25.26,30.91l74.85,19.48-87.88-2.74c-12.19,16.34-22.52,33.76-30.19,52.53-8.53,20.89-18.94,41.15-23.61,63.59-2.95,14.19-9.68,27.69-10.47,42.22-.91,16.68-2.91,33.38-1.38,49.95-1.14,15.65-.46,31.13,1.53,46.37,4.3,32.96,13.51,64.71,29.13,94.12,15.16,28.54,31.4,56.35,53.18,80.78,20.59,23.1,44.2,42.2,70.15,58.45,22.51,14.1,46.5,25.59,70.22,37.58,18.62,9.41,38.21,14.71,58.1,18.86,22.01,4.6,44.5,6.89,66.82,9.97,15.48,2.14,31.14,1.84,46.71,2.63,18.58.94,36.98-2.7,55.54-3.41,10.61-.41,21.95-3.01,32.89-4.2,19.82-2.15,38.7-7.97,57.57-13.36,21.73-6.2,42.25-15.97,62.13-27.04,42.48-23.65,78.86-54.12,107.89-93.36,27.43-37.08,45.5-78.23,55.23-123.24,3.11-14.38,6.61-28.76,7.92-43.35,2-22.12,2.44-44.34.4-66.6Z"/>
  </g>
</svg>